:SAMPLES-PER-SECOND 30
:FULLY-SPECIFIED
:DEGREES
126
root  -6.27085 34.7818 -33.1187 -173.206 -18.5201 177.769
RightUpLeg  -1.5948 -27.5265 -8.33537
RightLeg  8.50627 -12.053 -1.00497
RightFoot  4.94426 0.0628476 -0.861462
RightToes  -27.5489 -0.127412 -0.237821
Spine  -2.46261 5.27205 -2.54125
Spine1  -5.08155 10.3861 -4.55893
HEad  -73.0476 -13.929 18.275
LeftShoulder1  -1.94126e-019 -3.10601e-018 -2.51263e-017
LeftArm  2.56819 22.4275 -71.1016
LeftForeArm  27.3528 -27.3152 -4.71362
LeftHand  -0.458252 -0.830665 8.67996
RightShoulder  -4.96962e-017 0 -2.36833e-017
RightArm  18.9445 47.8056 99.9714
RightForeArm  29.3815 62.3173 18.9324
RightHand  0.0106906 -5.97004 -7.16908
LeftUpLeg  -9.33424 -13.6237 3.47782
LeftLeg  7.35717 10.8549 0.692046
LeftFoot  9.01169 -0.140133 1.87086
LeftToes  -24.5247 2.25955e-006 -3.67304e-008
127
root  -6.2693 34.7757 -33.1039 -173.009 -18.5164 177.773
RightUpLeg  -2.20056 -28.0471 -8.29315
RightLeg  9.26814 -11.575 -1.11987
RightFoot  4.73476 0.0562352 -0.769927
RightToes  -27.6223 -0.127895 -0.237962
Spine  -2.3707 5.08844 -2.28827
Spine1  -4.88718 10.0781 -4.03211
HEad  -75.0169 -10.6292 16.785
LeftShoulder1  -1.94126e-019 -3.10601e-018 -2.51263e-017
LeftArm  6.30097 22.7129 -70.8471
LeftForeArm  26.7056 -29.1418 -4.96589
LeftHand  -0.445235 -0.863042 8.39558
RightShoulder  -4.96962e-017 0 -2.36833e-017
RightArm  19.8778 47.3536 101.4
RightForeArm  36.3159 68.0493 24.8049
RightHand  -0.135681 -4.13736 -11.258
LeftUpLeg  -9.45675 -13.7868 3.53409
LeftLeg  7.14776 11.0475 0.663943
LeftFoot  9.09071 -0.143586 1.92519
LeftToes  -24.6631 2.25955e-006 -3.67304e-008
128
root  -6.27882 34.7774 -33.098 -172.641 -18.624 177.76
RightUpLeg  -2.64408 -28.5174 -8.1832
RightLeg  9.41 -11.2709 -1.11888
RightFoot  4.7768 0.0544976 -0.75284
RightToes  -27.8445 -0.128235 -0.238013
Spine  -2.51548 4.86824 -2.04036
Spine1  -5.15198 9.65552 -3.53785
HEad  -76.2788 -8.04486 15.4117
LeftShoulder1  -1.94126e-019 -3.10601e-018 -2.51263e-017
LeftArm  9.96447 22.7873 -70.715
LeftForeArm  27.2078 -29.7807 -5.0753
LeftHand  -0.411793 -1.28943 7.31087
RightShoulder  -4.96962e-017 0 -2.36833e-017
RightArm  24.3861 47.1719 102.888
RightForeArm  37.7747 68.7098 25.6177
RightHand  -0.336627 -3.43023 -19.4511
LeftUpLeg  -9.67858 -14.0195 3.60928
LeftLeg  6.79194 11.2068 0.604083
LeftFoot  9.24411 -0.147242 1.98267
LeftToes  -24.7254 2.25955e-006 -3.67304e-008
129
root  -6.30065 34.7856 -33.1187 -172.426 -18.635 177.695
RightUpLeg  -2.66246 -28.6906 -8.2044
RightLeg  9.1183 -11.1359 -1.04879
RightFoot  4.92178 0.0554071 -0.776918
RightToes  -27.8775 -0.128451 -0.237983
Spine  -2.72809 4.71219 -1.88198
Spine1  -5.54989 9.32156 -3.23698
HEad  -76.435 -6.546 14.8808
LeftShoulder1  -1.94126e-019 -3.10601e-018 -2.51263e-017
LeftArm  13.13 22.2826 -70.7175
LeftForeArm  28.7873 -29.2332 -5.01577
LeftHand  -0.367133 -1.87147 6.05325
RightShoulder  -4.96962e-017 0 -2.36833e-017
RightArm  29.3346 47.104 104.585
RightForeArm  39.265 64.5808 19.9552
RightHand  -0.263738 -3.93992 -20.4245
LeftUpLeg  -9.54478 -13.8993 3.54897
LeftLeg  6.21139 11.1186 0.487248
LeftFoot  9.42613 -0.148239 1.99739
LeftToes  -24.6268 2.25955e-006 -3.67304e-008
130
root  -6.33671 34.7934 -33.1511 -172.398 -18.5353 177.595
RightUpLeg  -2.38706 -28.2659 -8.32672
RightLeg  8.63894 -11.4647 -0.983242
RightFoot  5.13132 0.0600589 -0.856399
RightToes  -28.0304 -0.128557 -0.237882
Spine  -2.89661 4.66139 -1.74607
Spine1  -5.86012 9.1834 -2.98478
HEad  -75.9073 -6.16041 14.9797
LeftShoulder1  -1.94126e-019 -3.10601e-018 -2.51263e-017
LeftArm  14.8875 21.1811 -71.2093
LeftForeArm  31.7222 -27.6829 -4.85248
LeftHand  -0.351258 -2.26693 5.52849
RightShoulder  -4.96962e-017 0 -2.36833e-017
RightArm  32.7488 46.9297 106.691
RightForeArm  34.9091 56.8815 14.2459
RightHand  -0.318327 -2.52172 -12.5749
LeftUpLeg  -9.14474 -13.5589 3.37462
LeftLeg  5.60754 10.8492 0.361822
LeftFoot  9.53721 -0.146309 1.96403
LeftToes  -24.375 2.25955e-006 -3.67304e-008
131
root  -6.3916 34.8003 -33.2007 -172.678 -18.3432 177.398
RightUpLeg  -1.72344 -27.6234 -8.74786
RightLeg  8.16997 -11.8526 -0.919017
RightFoot  5.33135 0.0652048 -0.94341
RightToes  -28.2142 -0.128562 -0.237716
Spine  -2.91721 4.85857 -1.74944
Spine1  -5.88825 9.53188 -3.01578
HEad  -75.3955 -6.72401 15.4575
LeftShoulder1  -1.94126e-019 -3.10601e-018 -2.51263e-017
LeftArm  14.4796 19.5799 -71.943
LeftForeArm  34.9794 -26.1973 -4.76282
LeftHand  -0.379676 -2.50755 5.7956
RightShoulder  -4.96962e-017 0 -2.36833e-017
RightArm  34.6893 46.6548 107.668
RightForeArm  32.7737 48.8274 10.4038
RightHand  -0.152767 -2.18166 -5.19465
LeftUpLeg  -8.35127 -13.4341 3.00364
LeftLeg  5.0073 10.906 0.250129
LeftFoot  9.69065 -0.148569 1.99376
LeftToes  -24.3122 2.25955e-006 -3.67304e-008
132
root  -6.43864 34.7994 -33.2377 -173.055 -18.3734 177.23
RightUpLeg  -1.11208 -27.3814 -9.19883
RightLeg  8.1018 -12.057 -0.920284
RightFoot  5.26556 0.0650198 -0.953219
RightToes  -27.9427 -0.12848 -0.237496
Spine  -2.93933 5.07203 -1.7604
Spine1  -5.92854 9.9384 -3.05786
HEad  -74.5772 -7.65619 16.0279
LeftShoulder1  -1.94126e-019 -3.10601e-018 -2.51263e-017
LeftArm  11.7133 18.4284 -72.8112
LeftForeArm  36.0304 -25.4764 -4.72731
LeftHand  -0.419474 -2.23596 6.58844
RightShoulder  -4.96962e-017 0 -2.36833e-017
RightArm  34.2466 45.5412 106.482
RightForeArm  35.3527 43.4391 8.25273
RightHand  -0.0153001 0.0497623 -0.334456
LeftUpLeg  -7.75498 -13.2371 2.66735
LeftLeg  4.84618 10.6344 0.21423
LeftFoot  9.68895 -0.145704 1.94217
LeftToes  -24.3237 2.25955e-006 -3.67304e-008
133
root  -6.47035 34.7952 -33.2514 -173.372 -18.6411 177.12
RightUpLeg  -0.721193 -27.6053 -9.56634
RightLeg  8.35294 -12.0375 -0.97151
RightFoot  5.17279 0.0632826 -0.938434
RightToes  -28.0038 -0.12832 -0.237229
Spine  -2.88762 5.23684 -1.77164
Spine1  -5.81551 10.2416 -3.0867
HEad  -73.9967 -8.76219 16.8531
LeftShoulder1  -1.94126e-019 -3.10601e-018 -2.51263e-017
LeftArm  8.7305 17.7859 -73.4227
LeftForeArm  33.8046 -26.1759 -4.85829
LeftHand  -0.403005 -1.36497 7.08379
RightShoulder  -4.96962e-017 0 -2.36833e-017
RightArm  31.5318 44.1341 102.814
RightForeArm  43.1755 43.1419 7.66718
RightHand  0.0328351 3.1222 0.216132
LeftUpLeg  -7.47142 -13.5016 2.46045
LeftLeg  5.0095 10.6 0.243577
LeftFoot  9.58863 -0.144336 1.91279
LeftToes  -24.2526 2.25955e-006 -3.67304e-008
134
root  -6.49067 34.7857 -33.2445 -173.61 -19.095 177.024
RightUpLeg  -0.512335 -27.8487 -9.85475
RightLeg  8.81139 -12.1794 -1.08017
RightFoot  5.01022 0.0615511 -0.919906
RightToes  -28.0308 -0.128095 -0.236924
Spine  -2.79002 5.1664 -1.70452
Spine1  -5.60193 10.0886 -2.93279
HEad  -73.4835 -9.37106 17.1007
LeftShoulder1  -1.94126e-019 -3.10601e-018 -2.51263e-017
LeftArm  5.82018 18.0875 -73.9773
LeftForeArm  30.3918 -27.7114 -5.05169
LeftHand  -0.389834 -0.819331 7.41262
RightShoulder  -4.96962e-017 0 -2.36833e-017
RightArm  27.9393 42.2667 98.4953
RightForeArm  46.7282 47.1395 8.79387
RightHand  -0.0964214 3.10634 -1.54937
LeftUpLeg  -7.44875 -13.7106 2.31183
LeftLeg  5.37534 10.3286 0.302976
LeftFoot  9.44043 -0.140002 1.83666
LeftToes  -24.2631 2.25955e-006 -3.67304e-008
135
root  -6.4885 34.7738 -33.2329 -173.812 -19.4401 176.935
RightUpLeg  -0.427843 -27.5826 -10.0034
RightLeg  9.29928 -12.7116 -1.2348
RightFoot  4.79971 0.0612151 -0.916085
RightToes  -27.9518 -0.127816 -0.236589
Spine  -2.70585 4.92794 -1.70197
Spine1  -5.42516 9.62032 -2.8972
HEad  -72.744 -9.34922 17.2485
LeftShoulder1  -1.94126e-019 -3.10601e-018 -2.51263e-017
LeftArm  5.68799 19.2861 -73.6771
LeftForeArm  26.8726 -30.2956 -5.37873
LeftHand  -0.391836 -0.518313 7.8033
RightShoulder  -4.96962e-017 0 -2.36833e-017
RightArm  22.7756 39.7295 94.6283
RightForeArm  43.8182 53.8911 11.8477
RightHand  -0.11158 2.28682 -1.87863
LeftUpLeg  -7.44523 -13.7618 2.2026
LeftLeg  5.68341 10.0149 0.347432
LeftFoot  9.361 -0.136392 1.77168
LeftToes  -24.3574 2.25955e-006 -3.67304e-008
136
root  -6.47795 34.7672 -33.2236 -173.948 -19.6209 176.88
RightUpLeg  -0.418628 -27.3522 -10.0757
RightLeg  9.67376 -13.0712 -1.35459
RightFoot  4.63111 0.0606971 -0.902982
RightToes  -27.7196 -0.127494 -0.236233
Spine  -2.59293 4.69773 -1.69505
Spine1  -5.19508 9.17248 -2.84942
HEad  -72.0291 -9.52152 17.4234
LeftShoulder1  -1.94126e-019 -3.10601e-018 -2.51263e-017
LeftArm  7.52128 20.3788 -73.1457
LeftForeArm  26.1705 -32.4306 -5.68696
LeftHand  -0.396033 -0.856795 7.48684
RightShoulder  -4.96962e-017 0 -2.36833e-017
RightArm  16.6444 36.3616 91.1849
RightForeArm  43.8262 63.1765 18.0659
RightHand  -0.0915358 1.40937 -1.69911
LeftUpLeg  -7.35272 -14.0567 2.14381
LeftLeg  5.7176 10.1401 0.357763
LeftFoot  9.39409 -0.138841 1.80125
LeftToes  -24.411 2.25955e-006 -3.67304e-008
137
root  -6.44898 34.7653 -33.2127 -173.923 -19.6585 176.915
RightUpLeg  -0.43922 -27.3634 -9.96679
RightLeg  9.57785 -13.115 -1.33705
RightFoot  4.61934 0.0618393 -0.905514
RightToes  -27.5381 -0.12714 -0.235864
Spine  -2.51644 4.45248 -1.65213
Spine1  -5.02555 8.66571 -2.73247
HEad  -71.6291 -9.94226 17.3819
LeftShoulder1  -1.94126e-019 -3.10601e-018 -2.51263e-017
LeftArm  9.22094 21.1433 -72.9013
LeftForeArm  28.0806 -33.179 -5.73882
LeftHand  -0.406625 -1.49799 7.12668
RightShoulder  -4.96962e-017 0 -2.36833e-017
RightArm  11.9603 33.1978 88.6539
RightForeArm  50.3159 71.4885 28.7194
RightHand  -0.184698 0.338611 -3.80073
LeftUpLeg  -7.36178 -14.1438 2.23086
LeftLeg  5.58592 10.2161 0.337057
LeftFoot  9.47369 -0.14092 1.82593
LeftToes  -24.5018 2.25955e-006 -3.67304e-008
138
root  -6.40551 34.7731 -33.201 -173.809 -19.3451 176.985
RightUpLeg  -0.424906 -27.7329 -9.81816
RightLeg  8.99427 -12.4864 -1.14678
RightFoot  4.83372 0.063595 -0.907285
RightToes  -27.5861 -0.126767 -0.235492
Spine  -2.59834 4.12118 -1.55252
Spine1  -5.16882 7.98089 -2.51337
HEad  -70.7435 -10.015 16.9627
LeftShoulder1  -1.94126e-019 -3.10601e-018 -2.51263e-017
LeftArm  10.1724 22.0426 -72.9942
LeftForeArm  29.2568 -32.2532 -5.43928
LeftHand  -0.414434 -1.86735 6.90633
RightShoulder  -4.96962e-017 0 -2.36833e-017
RightArm  11.0339 31.2166 86.7135
RightForeArm  53.6672 74.4333 36.1595
RightHand  -0.510631 0.215696 -10.6371
LeftUpLeg  -7.28202 -13.6894 2.36311
LeftLeg  5.15291 10.1157 0.257715
LeftFoot  9.67854 -0.142353 1.8419
LeftToes  -24.6585 2.25955e-006 -3.67304e-008
